<svg width="200" height="200" viewBox="0 0 200 200" fill="none" xmlns="http://www.w3.org/2000/svg">
<circle cx="100" cy="100" r="100" fill="#FEDA92"/>
<g clip-path="url(#clip0)">
<path d="M124.001 107.803C125.154 108.903 127.022 108.903 128.174 107.803C144.028 92.6649 144.031 68.1618 128.174 53.022C112.356 37.9184 86.6174 37.9184 70.7996 53.022C60.104 63.2343 56.2535 78.1519 60.7512 91.9532C61.2355 93.4386 62.8882 94.2682 64.4453 93.8062C66.0013 93.3438 66.8703 91.7648 66.386 90.2791C62.5418 78.4829 65.8321 65.7334 74.9724 57.0058C88.4899 44.0997 110.484 44.0997 124.002 57.0058C137.55 69.9423 137.552 90.8809 124.002 103.819C122.849 104.919 122.849 106.703 124.001 107.803V107.803Z" fill="black"/>
<path d="M69.3763 102.134C68.1577 103.167 68.0471 104.948 69.1292 106.111C69.664 106.686 70.2257 107.255 70.7992 107.803C71.9506 108.903 73.819 108.904 74.9716 107.804C76.1241 106.704 76.1241 104.92 74.9723 103.82C74.4807 103.35 73.9994 102.863 73.5417 102.37C72.4592 101.207 70.5945 101.101 69.3763 102.134V102.134Z" fill="black"/>
<path d="M144.694 120.355C144.156 120.909 143.6 121.461 143.039 121.996C141.887 123.096 141.887 124.88 143.039 125.98C144.192 127.081 146.059 127.08 147.212 125.98C147.825 125.395 148.434 124.79 149.022 124.185C150.13 123.043 150.059 121.261 148.863 120.203C147.668 119.146 145.801 119.214 144.694 120.355Z" fill="black"/>
<path d="M147.211 34.8448C120.895 9.71841 78.077 9.71841 51.7612 34.8448C25.4455 59.9711 25.4455 100.854 51.7612 125.981C52.3373 126.531 53.0923 126.806 53.8476 126.806C56.4522 126.806 57.7984 123.777 55.934 121.996C31.9193 99.0671 31.9193 61.7579 55.934 38.8286C79.9487 15.8993 119.024 15.8993 143.039 38.8286C162.524 57.4332 166.685 86.4103 153.157 109.296C152.356 110.651 152.857 112.369 154.277 113.134C155.695 113.898 157.496 113.42 158.296 112.065C172.664 87.7576 169.342 55.9753 147.211 34.8448V34.8448Z" fill="black"/>
<path d="M140.794 179.366H139.01C127.717 155.618 118.822 130.731 112.57 105.357C112.131 102.764 108.774 102.091 107.258 104.054C105.808 105.381 97.0987 112.118 89.0991 118.241C91.1619 110.854 93.0067 103.412 94.6295 95.9261C105.607 99.0524 116.452 91.1418 116.452 80.4126C116.452 71.4808 108.841 64.2139 99.4865 64.2139C90.1318 64.2139 82.5209 71.4808 82.5209 80.4126C82.5209 81.9684 83.842 83.2298 85.4714 83.2298C87.1009 83.2298 88.422 81.9684 88.422 80.4126C88.422 74.5874 93.3855 69.8482 99.4865 69.8482C105.587 69.8482 110.551 74.5874 110.551 80.4126C110.551 88.5472 101.286 93.6016 93.9667 89.5702C92.2145 88.5711 89.9677 89.5406 89.5649 91.4274C83.0579 121.855 73.9194 150.028 59.9682 179.366H58.179C56.5496 179.366 55.2285 180.627 55.2285 182.183C55.2285 183.739 56.5496 185 58.179 185H72.1941C73.8235 185 75.1446 183.739 75.1446 182.183C75.1446 180.627 73.8235 179.366 72.1941 179.366H66.4398C73.9179 163.373 80.3132 146.919 85.574 130.141L116.098 147.72L82.9679 160.519C81.4572 161.102 80.7281 162.744 81.3392 164.187C81.9496 165.627 83.6679 166.326 85.1812 165.742L120.943 151.927C124.46 161.208 128.326 170.366 132.534 179.366H126.779C125.149 179.366 123.828 180.628 123.828 182.184C123.828 183.739 125.149 185.001 126.779 185.001H140.794C142.423 185.001 143.744 183.739 143.744 182.184C143.744 180.628 142.424 179.366 140.794 179.366V179.366ZM106.68 105.818C106.682 105.865 106.681 105.855 106.681 105.855C106.681 105.843 106.681 105.831 106.68 105.818ZM106.689 105.921C106.693 105.983 106.684 105.9 106.683 105.865C106.684 105.883 106.688 105.902 106.689 105.921ZM106.715 106.152C106.717 106.167 106.717 106.182 106.72 106.197C106.709 106.139 106.705 106.092 106.715 106.152ZM106.737 106.269C106.733 106.251 106.733 106.249 106.737 106.269V106.269ZM88.9981 125.533C94.0188 121.703 102.941 114.873 107.908 110.932C110.595 121.328 113.722 131.635 117.266 141.813L88.9981 125.533Z" fill="black"/>
</g>
<defs>
<clipPath id="clip0">
<rect width="177" height="169" fill="white" transform="translate(11 16)"/>
</clipPath>
</defs>
</svg>
