<svg width="200" height="200" viewBox="0 0 200 200" fill="none" xmlns="http://www.w3.org/2000/svg">
<circle cx="100" cy="100" r="100" fill="#FEDA92"/>
<g clip-path="url(#clip0)">
<path d="M118.525 96.2084C117.503 95.4124 115.967 95.524 115.096 96.4574L106.369 105.802C104.592 104.896 102.546 104.38 100.37 104.38C100.038 104.38 99.709 104.392 99.3837 104.415L97.7179 104.528L80.942 69.3634H82.7425C87.7183 69.3634 91.7664 65.6806 91.7664 61.1541C91.7664 58.3404 89.2524 56.0513 86.1621 56.0513H68.8313C65.7409 56.0513 63.2269 58.3404 63.2269 61.1541C63.2269 65.6806 67.2751 69.3634 72.2509 69.3634H75.6357L80.2343 79.0031L66.4778 91.3531C61.4829 88.3663 55.5156 86.6279 49.1121 86.6279C31.586 86.6276 17.3281 99.6472 17.3281 115.65C17.3281 131.653 31.586 144.673 49.1114 144.673C62.8491 144.673 74.5787 136.673 79.0073 125.507L100.37 126.921C107.176 126.921 112.713 121.865 112.713 115.65C112.713 113.024 111.725 110.605 110.069 108.687L118.798 99.3392C119.669 98.4061 119.547 97.0041 118.525 96.2084V96.2084ZM72.2499 64.921C69.9568 64.921 68.0911 63.2312 68.0911 61.1538C68.0911 60.7895 68.4226 60.4931 68.8303 60.4931H86.1611C86.5688 60.4931 86.9003 60.7895 86.9003 61.1538C86.9003 63.2312 85.0346 64.921 82.7415 64.921H72.2499ZM66.8917 97.2102C69.9205 99.6484 72.3459 102.697 73.9349 106.144L55.549 107.393L66.8917 97.2102ZM49.1114 140.23C34.2687 140.23 22.1933 129.204 22.1933 115.65C22.1933 102.096 34.2687 91.0697 49.1114 91.0697C54.1527 91.0697 58.8745 92.3417 62.9126 94.5527L48.0489 107.897C43.8301 108.376 40.5545 111.67 40.5545 115.65C40.5545 119.793 44.1055 123.194 48.5743 123.448L73.9313 125.163C69.8514 134.007 60.2624 140.23 49.1114 140.23V140.23ZM52.8028 115.65C52.8028 117.509 51.147 119.021 49.1114 119.021C47.0758 119.021 45.4197 117.509 45.4197 115.65C45.4197 113.791 47.0758 112.279 49.1114 112.279C51.147 112.279 52.8028 113.791 52.8028 115.65ZM75.4369 120.791L56.5448 119.517C57.2593 118.376 57.668 117.056 57.668 115.65C57.668 114.244 57.2593 112.924 56.5448 111.783L75.4369 110.509C75.8248 112.167 76.0292 113.887 76.0292 115.649C76.0292 117.412 75.8248 119.132 75.4369 120.791V120.791ZM90.012 121.774L80.3277 121.121C80.6994 119.349 80.894 117.52 80.894 115.65C80.894 113.781 80.6994 111.952 80.3277 110.179L90.012 109.526C88.7565 111.29 88.0267 113.394 88.0267 115.65C88.0267 117.906 88.7568 120.01 90.012 121.774V121.774ZM79.0096 105.799C77.2134 101.267 74.2145 97.2567 70.3668 94.0904L82.3143 83.3644L92.5773 104.878L79.0096 105.799ZM100.37 122.479C96.2463 122.479 92.8919 119.416 92.8919 115.65C92.8919 111.885 96.2463 108.821 100.37 108.821C101.335 108.821 102.259 108.989 103.107 109.295L98.5187 114.209C97.6468 115.143 97.7691 116.544 98.7914 117.34C99.2494 117.697 99.8105 117.871 100.369 117.871C101.056 117.871 101.74 117.606 102.221 117.091L106.808 112.179C107.468 113.197 107.847 114.383 107.847 115.65C107.848 119.416 104.493 122.479 100.37 122.479Z" fill="black"/>
<path d="M151.779 86.6269C148.493 86.6269 145.322 87.0848 142.338 87.9341L130.627 60.4924H144.399C144.806 60.4924 145.138 60.7889 145.138 61.1531C145.138 63.2305 143.272 64.9203 140.979 64.9203C139.636 64.9203 138.546 65.9145 138.546 67.1414C138.546 68.3683 139.636 69.3625 140.979 69.3625C145.955 69.3625 150.003 65.6796 150.003 61.1531C150.003 58.3395 147.489 56.0503 144.399 56.0503H127.068C126.265 56.0503 125.513 56.4125 125.06 57.0181C124.607 57.6237 124.51 58.3943 124.802 59.0777L132.758 77.7228L122.704 88.4905C121.832 89.424 121.954 90.8259 122.977 91.6216C123.434 91.9782 123.995 92.1526 124.553 92.1526C125.241 92.1526 125.924 91.8876 126.405 91.3726L134.764 82.422L137.818 89.5797C127.272 94.3079 119.996 104.217 119.996 115.65C119.996 131.653 134.254 144.672 151.779 144.672C169.304 144.672 183.563 131.652 183.563 115.649C183.563 99.6465 169.305 86.6269 151.779 86.6269V86.6269ZM151.779 140.23C136.937 140.23 124.862 129.203 124.862 115.649C124.862 106.099 130.857 97.803 139.592 93.7358L146.364 109.604C144.448 111.038 143.223 113.216 143.223 115.649C143.223 119.958 147.061 123.463 151.779 123.463C156.498 123.463 160.336 119.958 160.336 115.649C160.336 111.341 156.498 107.836 151.779 107.836C151.466 107.836 151.156 107.852 150.851 107.882L144.11 92.0854C146.541 91.4241 149.116 91.069 151.78 91.069C166.622 91.069 178.698 102.096 178.698 115.649C178.698 129.203 166.622 140.23 151.779 140.23V140.23ZM148.088 115.649C148.088 113.791 149.744 112.278 151.779 112.278C153.815 112.278 155.471 113.79 155.471 115.649C155.471 117.509 153.815 119.021 151.779 119.021C149.744 119.021 148.088 117.508 148.088 115.649Z" fill="black"/>
</g>
<defs>
<clipPath id="clip0">
<rect width="166.065" height="151.625" fill="white" transform="translate(17.3281 24.5488)"/>
</clipPath>
</defs>
</svg>
