<svg width="200" height="200" viewBox="0 0 200 200" fill="none" xmlns="http://www.w3.org/2000/svg">
<circle cx="100" cy="100" r="100" fill="#FEDA92"/>
<g clip-path="url(#clip0)">
<path d="M111.481 73.4384C113.957 76.9095 118.179 79.2011 122.963 79.2011C127.747 79.2011 131.968 76.9098 134.444 73.4384C136.92 76.9095 141.142 79.2011 145.926 79.2011C153.534 79.2011 159.724 73.4072 159.724 66.2852C159.724 66.0646 159.683 65.842 159.616 65.6309C159.433 65.075 156.634 56.8674 148.395 48.4272C147.532 47.5431 146.067 47.4815 145.123 48.289C144.178 49.0964 144.112 50.4681 144.975 51.3525C149.783 56.2786 152.586 61.1685 154.003 64.1167H136.247C136.233 64.0699 136.218 64.0201 136.204 63.9716C134.64 58.6578 132.375 53.462 129.447 48.6778C127.051 44.7624 124.12 41.0415 120.551 37.96C120.066 37.5412 119.57 37.133 119.061 36.7395C126.315 38.5952 132.8 41.5925 138.456 45.7129C139.466 46.4483 140.921 46.2783 141.707 45.3333C142.492 44.3883 142.311 43.0261 141.301 42.2903C130.242 34.234 116.348 30.1491 99.9995 30.1479C99.9964 30.1479 99.9936 30.1479 99.9906 30.1479C89.0801 30.1488 79.1591 31.9987 70.5028 35.6465C63.5389 38.5813 57.3839 42.6745 52.2097 47.8131C43.5102 56.452 40.579 65.0377 40.3845 65.6292C40.3499 65.7365 40.2764 66.1767 40.2764 66.2857C40.2764 73.4075 46.466 79.2017 54.0744 79.2017C58.8583 79.2017 63.0797 76.9104 65.5559 73.439C68.0318 76.9101 72.2536 79.2017 77.0371 79.2017C81.821 79.2017 86.0424 76.9104 88.5186 73.439C89.5591 74.8975 90.9087 76.1463 92.4785 77.1055V105.047H73.644C72.3648 105.047 71.3277 106.018 71.3277 107.215C71.3277 108.413 72.3648 109.384 73.644 109.384H147.592C149.103 109.384 150.332 110.534 150.332 111.949C150.332 113.363 149.103 114.514 147.592 114.514H52.4083C50.8975 114.514 49.6677 113.364 49.6677 111.949C49.6677 110.534 50.8968 109.384 52.4083 109.384H64.378C65.6572 109.384 66.6943 108.413 66.6943 107.215C66.6943 106.018 65.6572 105.047 64.378 105.047H52.4083C48.3425 105.047 45.0352 108.143 45.0352 111.949C45.0352 115.755 48.3428 118.851 52.4083 118.851H78.1625L90.7762 135.486C90.7762 135.486 75.0121 156.276 74.9781 156.321C73.9086 157.731 75.0245 159.744 76.867 159.744H89.6332C90.3837 159.744 91.0875 159.404 91.522 158.831L99.9998 147.65L108.477 158.83C108.912 159.403 109.616 159.744 110.366 159.744C110.366 159.744 123.108 159.744 123.132 159.744C124.976 159.744 126.09 157.73 125.021 156.32L109.223 135.485L121.837 118.85H147.591C151.657 118.85 154.964 115.754 154.964 111.948C154.964 108.143 151.657 105.047 147.591 105.047H107.521V77.1049C109.091 76.1457 110.441 74.8975 111.481 73.4384ZM154.794 68.4536C153.766 72.1381 150.18 74.8645 145.926 74.8645C141.672 74.8645 138.086 72.1378 137.057 68.4536H154.794ZM103.39 118.85L99.9998 123.321L96.6094 118.85H103.39ZM88.4371 155.407H81.3521L93.6169 139.232L97.1595 143.904L88.4371 155.407ZM118.647 155.407H111.563L83.8435 118.85H90.9285L118.647 155.407ZM106.383 131.739L102.84 127.067L109.071 118.85H116.156L106.383 131.739ZM122.963 74.8648C118.709 74.8648 115.123 72.1381 114.094 68.4539H131.831C130.803 72.1381 127.217 74.8648 122.963 74.8648ZM105.463 35.0405C105.517 35.0518 105.57 35.0648 105.624 35.0764C105.841 35.1235 106.059 35.1729 106.274 35.2258C111.773 36.5678 116.411 39.7695 120.103 43.7378C123.244 47.1135 125.706 50.9668 127.725 55.0135C129.194 57.9556 130.431 61.0052 131.422 64.1175H113.769C113.769 64.0872 113.767 64.0577 113.766 64.0274C113.626 58.8836 112.998 53.7349 111.654 48.7402C110.366 43.9535 108.423 39.2427 105.488 35.1206C105.468 35.0923 105.448 35.0619 105.428 35.0339C105.439 35.0362 105.451 35.0382 105.463 35.0405ZM54.0738 74.8648C49.8199 74.8648 46.2341 72.1381 45.205 68.4539H62.9423C61.9142 72.1381 58.3277 74.8648 54.0738 74.8648ZM63.7693 64.0609C63.7641 64.0791 63.7579 64.099 63.7527 64.117H45.9963C47.4808 61.0266 50.487 55.805 55.7307 50.6404C60.4886 45.9546 66.143 42.2215 72.5371 39.546C75.203 38.4307 78.0022 37.4981 80.9266 36.7493C80.7101 36.917 80.4951 37.0884 80.2811 37.2622C75.0161 41.5399 71.1295 47.126 68.1668 52.9873C66.3657 56.55 64.887 60.2614 63.7693 64.0609ZM77.0365 74.8648C72.7826 74.8648 69.1968 72.1381 68.168 68.4539H85.905C84.8769 72.1381 81.2904 74.8648 77.0365 74.8648ZM87.1366 54.3573C87.1329 54.3775 87.1295 54.3977 87.1264 54.4177C86.7082 56.7666 86.4964 59.1409 86.3426 61.5163C86.2907 62.3821 86.2518 63.2494 86.2302 64.117H68.5806C70.8126 57.1461 78.2292 38.5209 94.5625 35.0475C91.934 38.7313 88.6999 44.9237 87.1366 54.3573ZM90.9173 62.7227C91.0498 59.9162 91.3463 57.1158 91.8432 54.3448C92.8133 48.9273 94.5501 43.5667 97.5424 38.8134C98.2787 37.6441 99.0931 36.5131 100.012 35.4623C100.02 35.471 100.027 35.4788 100.035 35.4875C100.965 36.5282 101.777 37.6603 102.512 38.8288C105.548 43.6522 107.273 49.1386 108.223 54.6394C108.763 57.7648 109.067 60.9413 109.134 64.1069C109.134 64.1103 109.135 64.1135 109.135 64.117H90.8648C90.8781 63.6521 90.8954 63.1873 90.9173 62.7227ZM102.889 105.047H97.1107V78.9187C97.1434 78.9251 97.1768 78.9294 97.2095 78.9358C99.0764 79.2983 101.024 79.287 102.889 78.9187V105.047ZM103.822 74.0787C101.415 75.1183 98.5844 75.1172 96.1771 74.0785C93.7107 73.014 91.8299 70.9563 91.1314 68.4536H108.869C108.169 70.9566 106.289 73.0146 103.822 74.0787Z" fill="black"/>
<path d="M175.181 98.1319L170.486 97.0504C167.779 96.4274 164.975 98.0163 164.309 100.548L157.015 128.295H134.491V128.296C131.991 128.296 129.957 130.2 129.957 132.54V138.133C129.957 140.388 131.848 142.234 134.223 142.365C134.223 142.365 129.933 156.95 129.919 157C129.519 158.358 130.653 159.744 132.152 159.744H141.443C142.486 159.744 143.401 159.09 143.677 158.148L148.287 142.378H150.465L155.076 158.148C155.351 159.09 156.266 159.744 157.31 159.744C157.31 159.744 166.586 159.744 166.6 159.744C168.11 159.744 169.234 158.362 168.834 157L164.486 142.217C167.26 141.663 169.513 139.684 170.213 137.019C170.213 137.019 178.913 103.93 178.917 103.913C179.582 101.383 177.877 98.7532 175.181 98.1319ZM139.674 155.407H135.192L139.024 142.377H143.484L139.674 155.407ZM159.078 155.407L155.268 142.377H159.728L163.56 155.407H159.078V155.407ZM174.419 102.877L165.715 135.982C165.397 137.194 164.243 138.04 162.91 138.04H134.589V132.632H158.83C159.897 132.632 160.825 131.951 161.08 130.982L168.808 101.585C168.869 101.353 169.131 101.205 169.378 101.262C169.378 101.262 174.074 102.343 174.074 102.343C174.326 102.401 174.481 102.642 174.419 102.877Z" fill="black"/>
<path d="M70.0809 157L65.7767 142.365C68.152 142.234 70.0429 140.389 70.0429 138.133V132.54C70.0429 130.2 68.009 128.296 65.5083 128.296H42.9845C42.9845 128.296 35.6951 100.567 35.6902 100.548C35.0277 98.0281 32.2028 96.4315 29.5144 97.0504C29.5144 97.0504 24.8214 98.1313 24.8192 98.1319C22.1209 98.7535 20.418 101.387 21.0823 103.913L29.7859 137.019C30.4863 139.683 32.7399 141.663 35.5135 142.217C35.5135 142.217 31.1728 156.976 31.1657 157C30.7655 158.36 31.8952 159.744 33.3989 159.744H42.6896C43.7331 159.744 44.6482 159.09 44.9237 158.148L49.5345 142.378H51.7118L56.3227 158.148C56.5982 159.09 57.5129 159.744 58.5568 159.744C58.5568 159.744 67.845 159.744 67.8474 159.744C69.3209 159.744 70.487 158.382 70.0809 157ZM40.9221 155.407H36.4394L40.2714 142.378H44.7316L40.9221 155.407ZM60.3249 155.407L56.5154 142.378H60.9756L64.8076 155.407H60.3249V155.407ZM65.4101 138.041H37.0898C35.7569 138.041 34.6031 137.195 34.2843 135.983L25.5811 102.877C25.5422 102.731 25.5891 102.615 25.6355 102.544C25.6815 102.472 25.7695 102.38 25.9261 102.344L30.6216 101.262C30.8702 101.205 31.1305 101.352 31.1917 101.585L38.9196 130.982C39.1744 131.951 40.1028 132.632 41.1689 132.632H65.4101V138.041Z" fill="black"/>
</g>
<defs>
<clipPath id="clip0">
<rect width="158.123" height="148.014" fill="white" transform="translate(20.9385 20.9385)"/>
</clipPath>
</defs>
</svg>
