<svg width="200" height="200" viewBox="0 0 200 200" fill="none" xmlns="http://www.w3.org/2000/svg">
<circle cx="100" cy="100" r="100" fill="#FEDA92"/>
<path d="M171.007 105.251H125.429V100.89H127.708C128.967 100.89 129.987 99.9135 129.987 98.7092C129.987 97.5048 128.967 96.5284 127.708 96.5284H125.429V94.3477C125.429 89.5301 129.511 85.6247 134.545 85.6247C139.579 85.6247 143.66 89.5301 143.66 94.3477C143.66 95.552 144.681 96.5284 145.939 96.5284C147.198 96.5284 148.218 95.552 148.218 94.3477C148.218 87.1212 142.097 81.2632 134.545 81.2632C126.993 81.2632 120.872 87.1212 120.872 94.3477V105.251H82.632C83.77 104.059 84.4035 102.504 84.4095 100.89V87.8054C84.4095 86.6011 83.3892 85.6247 82.1306 85.6247H47.9474C46.6889 85.6247 45.6685 86.6011 45.6685 87.8054V100.89C45.6745 102.504 46.3081 104.059 47.4461 105.251H29.7164C28.4579 105.251 27.4375 106.228 27.4375 107.432V159.77C27.4375 160.974 28.4579 161.951 29.7164 161.951H171.007C172.266 161.951 173.286 160.974 173.286 159.77V107.432C173.286 106.228 172.266 105.251 171.007 105.251ZM50.2263 89.9862H79.8518V100.89C79.8518 102.094 78.8314 103.071 77.5729 103.071H52.5052C51.2467 103.071 50.2263 102.094 50.2263 100.89V89.9862ZM63.8996 157.589H31.9953V131.42H63.8996V157.589ZM63.8996 127.059H31.9953V109.613H38.8319C38.8319 110.817 39.8523 111.794 41.1108 111.794H54.7841C56.0426 111.794 57.063 110.817 57.063 109.613H63.8996V127.059ZM132.266 157.589H68.4574V109.613H132.266V157.589ZM168.728 157.589H136.824V131.42H168.728V157.589ZM168.728 127.059H136.824V109.613H143.66C143.66 110.817 144.681 111.794 145.939 111.794H159.613C160.871 111.794 161.891 110.817 161.891 109.613H168.728V127.059Z" fill="black"/>
<path d="M73.0142 142.324H127.707C128.966 142.324 129.986 141.348 129.986 140.143V118.336C129.986 117.132 128.966 116.155 127.707 116.155H73.0142C71.7557 116.155 70.7354 117.132 70.7354 118.336V140.143C70.7354 141.348 71.7557 142.324 73.0142 142.324ZM75.2931 120.517H125.428V137.963H75.2931V120.517Z" fill="black"/>
<path d="M114.035 148.866H86.6881C85.4295 148.866 84.4092 149.843 84.4092 151.047C84.4092 152.251 85.4295 153.228 86.6881 153.228H114.035C115.293 153.228 116.314 152.251 116.314 151.047C116.314 149.843 115.293 148.866 114.035 148.866Z" fill="black"/>
<path d="M52.5045 55.094H148.217C149.476 55.094 150.496 54.1176 150.496 52.9133V24.5636C150.496 23.3592 149.476 22.3828 148.217 22.3828H52.5045C51.246 22.3828 50.2256 23.3592 50.2256 24.5636V52.9133C50.2256 54.1176 51.246 55.094 52.5045 55.094ZM102.64 26.7443H145.939V50.7325H102.64V26.7443ZM54.7833 26.7443H98.0821V50.7325H54.7833V26.7443Z" fill="black"/>
<path d="M84.4084 37.6484H66.1773C64.9188 37.6484 63.8984 38.6249 63.8984 39.8292C63.8984 41.0335 64.9188 42.0099 66.1773 42.0099H84.4084C85.6669 42.0099 86.6872 41.0335 86.6872 39.8292C86.6872 38.6249 85.6669 37.6484 84.4084 37.6484Z" fill="black"/>
<path d="M134.544 37.6484H116.313C115.055 37.6484 114.034 38.6249 114.034 39.8292C114.034 41.0335 115.055 42.0099 116.313 42.0099H134.544C135.803 42.0099 136.823 41.0335 136.823 39.8292C136.823 38.6249 135.803 37.6484 134.544 37.6484Z" fill="black"/>
<path d="M53.416 76.2473C51.5271 77.2881 50.3241 79.1793 50.2256 81.263C50.2256 82.4674 51.246 83.4438 52.5045 83.4438C53.763 83.4438 54.7833 82.4674 54.7833 81.263C54.7833 80.8029 55.0112 80.5608 56.1507 79.7365C58.0396 78.6958 59.2425 76.8045 59.3411 74.7208C59.2425 72.6371 58.0396 70.7458 56.1507 69.7051C54.9998 68.8786 54.7833 68.6365 54.7833 68.1786C54.7833 67.7206 55.0112 67.4807 56.1507 66.652C58.0396 65.6113 59.2425 63.72 59.3411 61.6363C59.3411 60.432 58.3207 59.4556 57.0622 59.4556C55.8037 59.4556 54.7833 60.432 54.7833 61.6363C54.7833 62.0921 54.5555 62.3342 53.416 63.1628C51.5271 64.2036 50.3241 66.0949 50.2256 68.1786C50.3241 70.2623 51.5271 72.1535 53.416 73.1943C54.5555 74.0208 54.7833 74.2628 54.7833 74.7208C54.7833 75.1788 54.5555 75.4186 53.416 76.2473Z" fill="black"/>
<path d="M67.5452 66.652C69.4341 65.6113 70.6371 63.72 70.7356 61.6363C70.7356 60.432 69.7153 59.4556 68.4568 59.4556C67.1982 59.4556 66.1779 60.432 66.1779 61.6363C66.1779 62.0921 65.95 62.3342 64.8105 63.1628C62.9216 64.2036 61.7187 66.0949 61.6201 68.1786C61.7187 70.2623 62.9216 72.1535 64.8105 73.1943C65.95 74.0208 66.1779 74.2628 66.1779 74.7208C66.1779 75.1788 65.95 75.423 64.8105 76.2473C62.9216 77.2881 61.7187 79.1793 61.6201 81.263C61.6201 82.4674 62.6405 83.4438 63.899 83.4438C65.1575 83.4438 66.1779 82.4674 66.1779 81.263C66.1779 80.8029 66.4058 80.5608 67.5452 79.7365C69.4341 78.6958 70.6371 76.8045 70.7356 74.7208C70.6371 72.6371 69.4341 70.7458 67.5452 69.7051C66.4058 68.8786 66.1779 68.6365 66.1779 68.1786C66.1779 67.7206 66.4058 67.4742 67.5452 66.652Z" fill="black"/>
<path d="M78.9397 66.652C80.8286 65.6113 82.0316 63.72 82.1302 61.6363C82.1302 60.432 81.1098 59.4556 79.8513 59.4556C78.5928 59.4556 77.5724 60.432 77.5724 61.6363C77.5724 62.0921 77.3445 62.3342 76.2051 63.1628C74.3162 64.2036 73.1132 66.0949 73.0146 68.1786C73.1132 70.2623 74.3162 72.1535 76.2051 73.1943C77.3445 74.0208 77.5724 74.2628 77.5724 74.7208C77.5724 75.1788 77.3445 75.423 76.2051 76.2473C74.3162 77.2881 73.1132 79.1793 73.0146 81.263C73.0146 82.4674 74.035 83.4438 75.2935 83.4438C76.552 83.4438 77.5724 82.4674 77.5724 81.263C77.5724 80.8029 77.8003 80.5608 78.9397 79.7365C80.8286 78.6958 82.0316 76.8045 82.1302 74.7208C82.0316 72.6371 80.8286 70.7458 78.9397 69.7051C77.8003 68.8786 77.5724 68.6365 77.5724 68.1786C77.5724 67.7206 77.8003 67.4742 78.9397 66.652Z" fill="black"/>
</svg>
